<svg width="14" height="16" viewBox="0 0 14 16" fill="none" xmlns="http://www.w3.org/2000/svg">
<path fill-rule="evenodd" clip-rule="evenodd" d="M1.3338 9.19158V9.04559C1.35522 8.61366 1.49365 8.19516 1.73482 7.83323C2.13625 7.39847 2.41105 6.8657 2.53039 6.29081C2.53039 5.8465 2.53039 5.39583 2.5692 4.95151C2.76971 2.81244 4.88477 1.3335 6.97396 1.3335H7.0257C9.11489 1.3335 11.2299 2.81244 11.4369 4.95151C11.4757 5.39583 11.4369 5.8465 11.4693 6.29081C11.5902 6.86703 11.8647 7.40146 12.2648 7.83958C12.5078 8.1983 12.6465 8.61527 12.6659 9.04559V9.18523C12.6803 9.76553 12.4804 10.3314 12.1031 10.7784C11.6046 11.3011 10.928 11.6263 10.2015 11.6925C8.07125 11.921 5.92194 11.921 3.79167 11.6925C3.06601 11.6235 2.39042 11.2988 1.89006 10.7784C1.51859 10.331 1.32141 9.76855 1.3338 9.19158Z" stroke="#2C2C2C" stroke-linecap="round" stroke-linejoin="round"/>
<path d="M5.36987 13.9014C5.70272 14.3191 6.19151 14.5895 6.72807 14.6527C7.26462 14.7158 7.8047 14.5665 8.22876 14.2378C8.35919 14.1406 8.47654 14.0275 8.57803 13.9014" stroke="#2C2C2C" stroke-linecap="round" stroke-linejoin="round"/>
</svg>
