<svg xmlns="http://www.w3.org/2000/svg" viewBox="0 0 1980 1080" style="enable-background:new 0 0 1980 1080; background: #ededed" width="400" height="260">
    <defs>
        <style>
            .cls-1 {
                fill: #ddd;
            }

            .cls-2 {
                fill: #adadad;
            }
        </style>
    </defs>
    <title>image</title>
    <g id="&#x421;&#x43B;&#x43E;&#x439;_2" data-name="&#x421;&#x43B;&#x43E;&#x439; 2">
        <g id="&#x421;&#x43B;&#x43E;&#x439;_1-2" data-name="&#x421;&#x43B;&#x43E;&#x439; 1">
            <path class="cls-2" d="M1185.81,380.5H794.19a6.41,6.41,0,0,0-6.41,6.41V693.1a6.41,6.41,0,0,0,6.41,6.41h391.62a6.41,6.41,0,0,0,6.41-6.41V386.9A6.41,6.41,0,0,0,1185.81,380.5Zm-32,267.92-88.13-91.27A2.62,2.62,0,0,0,1062,557l-61.12,53.8-78.13-96.2a2.57,2.57,0,0,0-2.09-1,2.62,2.62,0,0,0-2,1.05l-92.41,124V418.94h327.54V648.42Z"/>
            <path class="cls-2" d="M1057,511.5a31.44,31.44,0,1,0-31.43-31.44A31.44,31.44,0,0,0,1057,511.5Z"/>
        </g>
    </g>
</svg>