<svg xmlns="http://www.w3.org/2000/svg" width="23" height="23" viewBox="0 0 23 23">
    <g id="prefix__Group_3316" data-name="Group 3316" transform="translate(-1199 -222)">
        <path id="prefix__Union_157" d="M1.309 19a1.31 1.31 0 0 1 0-2.62h5.554l-5.7-5.7A1.35 1.35 0 0 1 3.07 8.769l3.382 3.382V1.335a1.333 1.333 0 1 1 2.667 0v10.947L12.7 8.761a1.378 1.378 0 0 1 1.925 0 1.32 1.32 0 0 1 0 1.891l-5.719 5.62c-.029.037-.059.073-.092.107h5.876a1.31 1.31 0 0 1 0 2.62z" data-name="Union 157" transform="translate(1203.001 224.001)"/>
        <g id="prefix__Rectangle_3723" data-name="Rectangle 3723" style="stroke:transparent;fill:none">
            <path d="M0 0H23V23H0z" style="stroke:none" transform="translate(1199 222)"/>
            <path d="M0.5 0.5H22.5V22.5H0.5z" style="fill:none" transform="translate(1199 222)"/>
        </g>
    </g>
</svg>
