<svg width="14" height="14" viewBox="0 0 14 14" fill="none" xmlns="http://www.w3.org/2000/svg">
<path fill-rule="evenodd" clip-rule="evenodd" d="M1.75204 0.333252H12.2478C13.0317 0.333252 13.6666 0.987287 13.6666 1.79475V2.81576C13.6666 3.20747 13.5135 3.58363 13.2417 3.85797L8.90502 8.2446C8.83021 8.32096 8.72862 8.36339 8.6236 8.36268L4.99254 8.35137C4.88203 8.35137 4.77701 8.30399 4.70151 8.22127L0.716264 3.83817C0.469846 3.56737 0.333252 3.20959 0.333252 2.83838V1.79546C0.333252 0.987994 0.968173 0.333252 1.75204 0.333252ZM5.18656 9.54935L8.42294 9.55925C8.62474 9.55995 8.78811 9.72894 8.78811 9.93611V11.7568C8.78811 11.9647 8.67004 12.1528 8.48609 12.2397L5.54829 13.6192C5.47965 13.651 5.4069 13.6666 5.33414 13.6666C5.23735 13.6666 5.14057 13.6383 5.05614 13.5824C4.90857 13.4849 4.81934 13.3166 4.81934 13.1363V9.92621C4.81934 9.71763 4.98407 9.54864 5.18656 9.54935Z" fill="#CCCCCC"/>
</svg>
