<svg xmlns="http://www.w3.org/2000/svg" width="176" height="38.949" viewBox="0 0 176 38.949">
    <defs>
        <style>
            .prefix__cls-3{fill:#e60019}.prefix__cls-4{fill:#060606}
        </style>
    </defs>
    <g id="prefix__Group_3041" data-name="Group 3041" transform="translate(-15.915 -22.5)">
        <path id="prefix__Path_176" d="M57.644 38.68c-.005-.036-.013-.029.023-.023-.007-.041-.016-.034.023-.026-.008-.04-.016-.032.024-.024-.008-.039-.015-.031.025-.024-.006-.038-.014-.03.023-.024-.008-.042-.017-.035.023-.026-.009-.041-.017-.033.024-.024-.009-.041-.017-.032.025-.024-.008-.039-.016-.032.023-.024-.008-.042-.018-.035.024-.026-.01-.042-.018-.035.024-.024-.011-.042-.018-.034.025-.024-.009-.041-.017-.033.024-.024-.009-.043-.018-.036.023-.025-.011-.044-.02-.036.024-.025-.011-.044-.019-.035.025-.024-.01-.042-.018-.034.024-.024-.011-.044-.02-.037.023-.025-.012-.045-.021-.038.024-.025-.014-.045-.021-.036.024-.024-.01-.043-.018-.035.025-.024-.011-.044-.021-.037.023-.027-.012-.044-.021-.037.022-.026-.012-.042-.018-.034.024-.023-.009-.042-.017-.034.026-.024-.012-.042-.021-.035.021-.027-.01-.042-.02-.036.022-.027-.011-.041-.018-.032.024-.023-.007-.041-.015-.032.026-.024-.009-.041-.019-.033.022-.027-.009-.041-.018-.033.021-.026-.008-.04-.015-.031.024-.024-.007-.039-.015-.031.026-.023-.008-.04-.016-.03.026-.03a3.549 3.549 0 0 1 .3-.32l.309-.32 3.718-3.784c.192-.2.409-.45.611-.623.224-.192.427-.42.633-.626l1.865-1.863a3 3 0 0 1 1.522-.971 2.862 2.862 0 0 1 2.727 4.809c-1.126 1.149-2.314 2.277-3.425 3.423l-2.78 2.839a1.234 1.234 0 0 0-.289.334l5.262 8.427c.139.214.273.421.4.637l1.605 2.58c.78 1.288 1.644 2.6 2.425 3.891.532.876 1.094 1.731 1.615 2.6l1.412 2.266a2.589 2.589 0 0 1 .19.317 4.58 4.58 0 0 0 4.272-4.658V27.141a4.543 4.543 0 0 0-2.07-3.859 4.464 4.464 0 0 0-2.23-.726L57.6 22.543c-.025.311-.006.7-.006 1.017v11.107c0 .121-.033 3.834.018 3.968.063.162-.129-.079.03.044" data-name="Path 176" transform="translate(-26.001 -.027)" style="fill-rule:evenodd;fill:#100f0f"/>
        <path id="prefix__Path_177" d="M25.082 22.52c-.751-.043-1.625 0-2.39 0-.78 0-1.6-.024-2.372 0a4.609 4.609 0 0 0-4.12 2.992 5.413 5.413 0 0 0-.285 2.086V56.1a4.9 4.9 0 0 0 1.057 3.689 4.58 4.58 0 0 0 3.12 1.623c.719.061 1.621.014 2.359.014h16.625c1.566 0 3.186.041 4.745 0-.024-.089-.54-.956-.618-1.078-.11-.174-.209-.37-.313-.534-.332-.523-.581-.979-.96-1.559-.224-.343-.421-.685-.639-1.029l-1.937-3.1c-.215-.338-.446-.686-.647-1.023l-2.577-4.119c-.226-.347-.435-.7-.652-1.042l-.969-1.549c-.089-.144-.891-1.454-.975-1.528-.1.048-1.637 1.64-1.709 1.715-.252.259-.237.14-.237.62v5.953a3.54 3.54 0 0 1-.226 1.458 3.133 3.133 0 0 1-.661 1.033 3.238 3.238 0 0 1-4.748-.015 3.3 3.3 0 0 1-.865-2.548V24.21c0-.529.033-1.175 0-1.69" data-name="Path 177" style="fill:#e60019;fill-rule:evenodd"/>
        <g id="prefix__Group_3040" data-name="Group 3040" transform="translate(64.146 27.755)">
            <path id="prefix__Path_178" d="M271.465 51.233v-1.167a1.424 1.424 0 0 0-1.423-1.424 1.456 1.456 0 0 0-1.456 1.456v2.382h2.89v-1.247z" class="prefix__cls-3" data-name="Path 178" transform="translate(-221.829 -44.069)"/>
            <path id="prefix__Path_179" d="M342.088 69.518a1.712 1.712 0 0 1-1.712-1.711v-9.624a1.553 1.553 0 0 0-1.553-1.553h-6.677v11.214a1.674 1.674 0 0 1-1.674 1.674 1.711 1.711 0 0 1-1.711-1.711V48.559a1.711 1.711 0 0 1 1.711-1.712 1.674 1.674 0 0 1 1.674 1.674v4.755h6.695q4.919 0 4.92 4.907v9.661a1.674 1.674 0 0 1-1.674 1.674" class="prefix__cls-4" data-name="Path 179" transform="translate(-259.384 -42.949)"/>
            <path id="prefix__Path_180" d="M385.569 76.836a1.331 1.331 0 0 0 1.522-1.491v-6.49a1.359 1.359 0 0 0-1.522-1.553h-5.155a1.372 1.372 0 0 0-1.553 1.553v6.46a1.359 1.359 0 0 0 1.553 1.521zm-10.093-7.981q0-4.906 4.948-4.907h5.166q4.886 0 4.886 4.907v6.49q0 4.845-4.886 4.845h-5.166q-4.948 0-4.948-4.875z" class="prefix__cls-4" data-name="Path 180" transform="translate(-288.537 -53.621)"/>
            <path id="prefix__Path_181" d="M423.933 46.847a1.674 1.674 0 0 1 1.674 1.674v19.323a1.674 1.674 0 0 1-1.674 1.674 1.711 1.711 0 0 1-1.711-1.711V48.559a1.712 1.712 0 0 1 1.711-1.712" class="prefix__cls-4" data-name="Path 181" transform="translate(-317.709 -42.949)"/>
            <path id="prefix__Path_182" d="M437.669 63.948h3.386v14.568a1.674 1.674 0 0 1-1.674 1.674 1.711 1.711 0 0 1-1.711-1.711z" class="prefix__cls-4" data-name="Path 182" transform="translate(-327.349 -53.621)"/>
            <path id="prefix__Path_183" d="M464.907 78.547a1.643 1.643 0 0 1-1.643 1.643h-4.972q-4.938 0-4.938-4.875v-6.46q0-4.906 4.938-4.907h4.9a1.711 1.711 0 0 1 1.711 1.711 1.643 1.643 0 0 1-1.642 1.643h-4.972a1.553 1.553 0 0 0-1.553 1.553v6.46a1.359 1.359 0 0 0 1.553 1.521h4.9a1.711 1.711 0 0 1 1.711 1.711" class="prefix__cls-4" data-name="Path 183" transform="translate(-337.138 -53.621)"/>
            <path id="prefix__Path_184" d="M242.742 63.94H239.5v.011q-4.681.126-4.686 4.9v9.661a1.674 1.674 0 0 0 1.674 1.674 1.711 1.711 0 0 0 1.711-1.711V68.85a1.552 1.552 0 0 1 1.464-1.548h3.076a1.651 1.651 0 0 0 1.65-1.65v-.062a1.651 1.651 0 0 0-1.65-1.65" class="prefix__cls-3" data-name="Path 184" transform="translate(-200.756 -53.616)"/>
            <path id="prefix__Path_185" d="M255.519 80.425a1.329 1.329 0 0 1 1.329-1.329h2.468q1.21 0 1.209-1.161V64.054h2.636v13.881q0 3.773-3.845 3.773H256.8a1.283 1.283 0 0 1-1.283-1.283" class="prefix__cls-3" data-name="Path 185" transform="translate(-213.675 -53.687)"/>
            <path id="prefix__Path_186" d="M292.078 76.836h-5.156q-1.522 0-1.522-1.273v-.621q0-1.181 1.522-1.18h5.28v-.005h1.4v1.558a1.521 1.521 0 0 1-1.521 1.521m0-12.888h-7.047a1.711 1.711 0 0 0-1.711 1.711 1.643 1.643 0 0 0 1.643 1.643h7.115a1.359 1.359 0 0 1 1.521 1.553V70.4h-6.677q-4.907 0-4.907 4.535v.621q0 4.628 4.917 4.627h5.165q4.886 0 4.886-4.875v-6.46a4.907 4.907 0 0 0-4.908-4.9z" class="prefix__cls-3" data-name="Path 186" transform="translate(-230.211 -53.621)"/>
            <path id="prefix__Path_187" d="M441.039 49.893v-1.372a1.674 1.674 0 0 0-1.674-1.674 1.711 1.711 0 0 0-1.711 1.712v2.801h3.4v-1.467z" class="prefix__cls-4" data-name="Path 187" transform="translate(-327.339 -42.949)"/>
            <path id="prefix__Path_188" d="M160.477 62.143l-7.21-10.873 4.815-3.965a1.777 1.777 0 1 0-2.259-2.743l-8.058 6.638V38.254a1.776 1.776 0 0 0-3.553 0V60.9a1.776 1.776 0 1 0 3.553 0v-5.1l2.744-2.259 7.007 10.566a1.777 1.777 0 0 0 2.961-1.963" class="prefix__cls-3" data-name="Path 188" transform="translate(-144.212 -36.478)"/>
            <path id="prefix__Path_189" d="M198.909 69.193q0 1.207-1.516 1.207h-6.683v-1.547a1.547 1.547 0 0 1 1.547-1.547h5.136q1.516 0 1.516 1.237zm-1.5-5.229h-5.146a7.06 7.06 0 0 0-1.977.256c-.038.011-.078.02-.115.032a3.86 3.86 0 0 0-1.689 1.029A9.3 9.3 0 0 0 185.993 72a9.729 9.729 0 0 0 2.032 6.236q1.15 1.908 4.233 1.908h7.057a1.636 1.636 0 0 0 1.636-1.636 1.7 1.7 0 0 0-1.7-1.7h-6.989a1.354 1.354 0 0 1-1.547-1.516v-1.549h6.683q4.888 0 4.888-4.548v-.65q-.005-4.58-4.873-4.581z" class="prefix__cls-3" data-name="Path 189" transform="translate(-170.286 -53.631)"/>
        </g>
    </g>
</svg>
