<svg xmlns="http://www.w3.org/2000/svg" width="29.235" height="29.24" viewBox="0 0 29.235 29.24">
    <g data-name="Group 3239">
        <path d="M12.839.021a15.817 15.817 0 0 0-6.723 2.62 18.437 18.437 0 0 0-3.487 3.487 15.972 15.972 0 0 0-2.429 5.6 11.529 11.529 0 0 0-.2 2.863 11.654 11.654 0 0 0 .2 2.941 14.782 14.782 0 0 0 9.742 11.026 11.365 11.365 0 0 0 4.633.685 10.932 10.932 0 0 0 4.338-.572 14.7 14.7 0 0 0 10.115-11.139 10.945 10.945 0 0 0 .208-2.9 10.953 10.953 0 0 0-.581-4.294A14.756 14.756 0 0 0 17.555.223a11.842 11.842 0 0 0-2.681-.217c-.977-.011-1.884-.002-2.035.015zm4.338 1.943a12.022 12.022 0 0 1 3.21 1.128 12.888 12.888 0 0 1 5.769 5.769 11.353 11.353 0 0 1 1.336 5.726 11.569 11.569 0 0 1-1.31 5.752l-.486.972-.416-.39a17.054 17.054 0 0 0-5.031-2.689l-1.093-.416-.607.512a6.843 6.843 0 0 1-2.212 1.319 3.951 3.951 0 0 1-1.718.226 3.951 3.951 0 0 1-1.718-.226 6.849 6.849 0 0 1-2.212-1.319l-.607-.512-1.092.415a17.025 17.025 0 0 0-5.04 2.7l-.416.391-.477-.98A12.842 12.842 0 0 1 3.43 8.188a13.373 13.373 0 0 1 4.745-4.745A14.03 14.03 0 0 1 12.99 1.8a17.439 17.439 0 0 1 4.187.165z" data-name="Path 2524"/>
        <path d="M13.403 5.226a5.922 5.922 0 0 0-2.577 1.371c-2.195 2.03-2.594 5.136-1.076 8.232 1.5 3.062 4.173 4.459 6.489 3.4a7.915 7.915 0 0 0 3.947-5.327 7.777 7.777 0 0 0 .035-3.253 5.813 5.813 0 0 0-6.818-4.423z" data-name="Path 2525"/>
    </g>
</svg>
