<svg xmlns="http://www.w3.org/2000/svg" width="23" height="23" viewBox="0 0 23 23">
    <g id="prefix__Group_3317" data-name="Group 3317" transform="translate(-1158 -222)">
        <path id="prefix__share-svgrepo-com" d="M16.516 12.58a3.2 3.2 0 0 0-2.281.945 3.27 3.27 0 0 0-.44.551l-5.574-3.383a3.19 3.19 0 0 0 0-2.383L13.8 4.953a3.242 3.242 0 1 0-.291-.578L7.923 7.737a3.226 3.226 0 1 0 0 3.53l5.577 3.388a3.224 3.224 0 1 0 3.012-2.074z" transform="translate(1159 224)"/>
        <g id="prefix__Rectangle_3724" data-name="Rectangle 3724" style="stroke:transparent;fill:none">
            <path d="M0 0H23V23H0z" style="stroke:none" transform="translate(1158 222)"/>
            <path d="M0.5 0.5H22.5V22.5H0.5z" style="fill:none" transform="translate(1158 222)"/>
        </g>
    </g>
</svg>
