<svg width="24" height="24" viewBox="0 0 24 24" fill="none" xmlns="http://www.w3.org/2000/svg">
<path d="M20.8582 15.5968C21.2681 15.074 21.4647 14.5136 21.4396 13.9364C21.4145 13.3007 21.1301 12.803 20.8959 12.4977C21.1677 11.8202 21.2723 10.7537 20.3647 9.92555C19.6997 9.31911 18.5705 9.04726 17.0063 9.12254C15.9063 9.17273 14.9862 9.37767 14.9486 9.38603H14.9444C14.7353 9.42367 14.5136 9.46968 14.2877 9.51987C14.271 9.2522 14.317 8.5872 14.8105 7.08992C15.3961 5.30824 15.3626 3.94479 14.7018 3.03304C14.0075 2.07528 12.8992 2 12.573 2C12.2593 2 11.9707 2.12965 11.7658 2.36805C11.3015 2.90757 11.3559 3.90297 11.4145 4.36303C10.8624 5.84358 9.31493 9.47386 8.00585 10.4818C7.98076 10.4985 7.95985 10.5194 7.93894 10.5404C7.55416 10.946 7.29486 11.3852 7.1192 11.77C6.87244 11.6361 6.59222 11.5609 6.29109 11.5609H3.73986C2.77792 11.5609 2 12.343 2 13.3007V20.097C2 21.059 2.7821 21.8369 3.73986 21.8369H6.29109C6.66332 21.8369 7.01046 21.7198 7.29486 21.519L8.27771 21.6361C8.42827 21.657 11.105 21.9958 13.8528 21.9414C14.3505 21.9791 14.8189 22 15.2539 22C16.0025 22 16.655 21.9414 17.1987 21.8243C18.4785 21.5525 19.3526 21.0088 19.7959 20.21C20.1347 19.5993 20.1347 18.9929 20.0803 18.6081C20.9126 17.8553 21.059 17.023 21.0297 16.4375C21.013 16.0987 20.9377 15.8101 20.8582 15.5968ZM3.73986 20.7077C3.40109 20.7077 3.12923 20.4316 3.12923 20.097V13.2965C3.12923 12.9578 3.40527 12.6859 3.73986 12.6859H6.29109C6.62986 12.6859 6.90171 12.9619 6.90171 13.2965V20.0928C6.90171 20.4316 6.62568 20.7035 6.29109 20.7035H3.73986V20.7077ZM19.7875 15.1075C19.6119 15.2915 19.5784 15.5717 19.7123 15.7892C19.7123 15.7934 19.8837 16.0862 19.9046 16.4877C19.9339 17.0355 19.6704 17.5207 19.1184 17.9348C18.9218 18.0853 18.8423 18.3446 18.926 18.5788C18.926 18.583 19.1058 19.1351 18.813 19.6579C18.5328 20.1598 17.9097 20.5194 16.9644 20.7202C16.2074 20.8833 15.1786 20.9126 13.9155 20.8122C13.8988 20.8122 13.8779 20.8122 13.857 20.8122C11.1677 20.8708 8.44918 20.5194 8.41991 20.5153H8.41573L7.99331 20.4651C8.0184 20.348 8.03095 20.2225 8.03095 20.097V13.2965C8.03095 13.1167 8.00167 12.941 7.95148 12.7779C8.02677 12.4977 8.23588 11.8745 8.7294 11.3434C10.6073 9.85445 12.4433 4.83145 12.5228 4.61397C12.5563 4.52614 12.5646 4.42995 12.5479 4.33375C12.4768 3.86533 12.5019 3.29235 12.6023 3.12087C12.8239 3.12505 13.422 3.18779 13.7817 3.68549C14.2083 4.2752 14.1916 5.32915 13.7315 6.72606C13.0289 8.85487 12.9703 9.97574 13.5266 10.4693C13.8026 10.716 14.1706 10.7286 14.4383 10.6324C14.6934 10.5738 14.936 10.5236 15.166 10.486C15.1828 10.4818 15.2037 10.4776 15.2204 10.4734C16.5044 10.1932 18.8047 10.0217 19.6035 10.7495C20.2811 11.3685 19.8001 12.1882 19.7457 12.276C19.591 12.5102 19.637 12.8156 19.8461 13.0038C19.8503 13.0079 20.2894 13.422 20.3103 13.9783C20.3271 14.3505 20.1514 14.7311 19.7875 15.1075Z" fill="#FF0000"/>
</svg>
